<svg xmlns="http://www.w3.org/2000/svg" width="162.8" height="371.2"><g transform="translate(-219 -67)"><ellipse cx="61" cy="9.3" rx="61" ry="9.3" transform="translate(237 420)" fill="#32324c" opacity=".1"/><path d="M382 321c-5 76-101 107-149 47-9-12-12-42-9-57 10-63 42-69 18-109S216 91 282 92s23 106 69 135c21 14 33 54 31 94z" fill="#32324c" opacity=".1"/><path d="M357 210a10 10 0 01-11-3c-5-5-12-16-9-28 2-17 25-3 26 16 1 10-2 14-6 15zM333 164a5 5 0 01-3-5c-1-3 0-10 5-14 7-6 11 7 6 15-3 5-6 5-8 4zM224 250a5 5 0 01-4-4c-1-4-1-10 2-16 6-7 13 5 9 14-2 5-5 6-7 6z" fill="#32324c" opacity=".1"/><path d="M347 237a35 35 0 017 2l8 3c2 1 0 3-3 2l-4-1s10 7 12 10-4-1-9-4c0 0 8 9 8 11-1 2-11-8-11-8s6 9 5 9c-1 1-9-8-9-8l3 7c-2 0-13-12-13-19 0 0 4-4 6-4z" fill="#ffaf82"/><path d="M357 246s-3 5-9 6c0 0 6 2 9-6zM351 246s-6-2-4-8c0 0-5 6 4 8z" fill="#f88968"/><path d="M325 195c-5-42-14-58-14-58-9 35-2 54 1 63s29 42 29 42a14 14 0 017-5l-11-20-12-22z" fill="#00784e"/><path d="M323 333l-7 81h-11c-3-32-8-59-3-81-5-25-8-80-8-80 9-5 23-8 23-8 5 27 6 88 6 88z" fill="#050705"/><path d="M344 433h-39a4 4 0 01-3-4l1-20a23 23 0 014-2 4 4 0 003-2v-1c1-3 7-5 8-1a28 28 0 010 4 22 22 0 011 3l1 2 1 1a249 249 0 004 5c2 2 4 4 7 4 4 1 11 1 14 7a2 2 0 010 1 2 2 0 01-2 3z" fill="#de9d01"/><path d="M344 433h-39a4 4 0 01-3-3h44a2 2 0 01-2 3z" fill="#bf8005"/><path d="M321 413a7 7 0 01-3 2h-1l-1-1h1l3-2 1 1z" fill="#fff"/><circle cx="1.2" cy="1.2" r="1.2" transform="translate(315 414)" fill="#fff"/><path d="M323 416a8 8 0 01-3 1l-1 1v-1l1-1a6 6 0 002-1l1 1z" fill="#fff"/><path d="M320 417a1 1 0 11-1-1 1 1 0 011 1zM325 418a8 8 0 01-2 2h-2v-1h1a7 7 0 003-2v1z" fill="#fff"/><path d="M323 420a1 1 0 11-2-1 1 1 0 012 1zM318 407a27 27 0 00-3 0v-2a9 9 0 013 0v2z" fill="#fff"/><path d="M287 253s0 32-5 80l-9 81h-12l-2-81s-3-50 3-84z" fill="#2c2c2c"/><path d="M283 430c0 7-22 5-25 2l-2-4 2-9 2-8s-1-6 6-8 10 12 11 14 5 6 6 11a13 13 0 010 2z" fill="#de9d01"/><path d="M263 415l-1-1s6-4 12-2l-1 1c-4-2-10 2-10 2zM263 421v-1s6-4 11-2v1c-5-2-11 2-11 2zM263 418l-1-1c1 0 7-4 12-2v1c-5-2-11 2-11 2z" fill="#fff"/><path d="M263 415a1 1 0 11-1-1 1 1 0 011 1z" fill="#fff"/><path d="M263 418a1 1 0 11-1-2 1 1 0 011 2zM264 420a1 1 0 11-1-1 1 1 0 011 1zM275 419a1 1 0 11-1-1 1 1 0 011 1zM275 416a1 1 0 11-1-1 1 1 0 011 1zM275 413a1 1 0 11-1-2 1 1 0 011 2z" fill="#fff"/><path d="M283 430c0 7-22 5-25 2l-2-4a25 25 0 0012 3c7 0 12-1 15-3a13 13 0 010 2z" fill="#bf8005"/><path d="M269 405a11 11 0 00-6 2l1 2a24 24 0 016-1 5 5 0 00-1-3z" fill="#fff"/><path d="M264 240s-4 14-4 27c0 0 20 9 44-1a20 20 0 0012-25v-1h-52z" fill="#2c2c2c"/><path d="M323 248a102 102 0 01-13 5l-3 1a79 79 0 01-20 3 59 59 0 01-32-8l7-42-11-66 17-6 1-1h2l2-1 3-1 18 3h4l13 2z" fill="#009762"/><path d="M307 254a79 79 0 01-20 3l1-6v-3l1-6v-3-6-3l-1-6v-3l-1-6v-3l-1-6v-2l-1-6v-3l-1-6-1-3-1-6-1-3-1-6v-3l-2-6v-3l-2-6a352 352 0 00-2-9l-1-3-2-7 2-1 3-1 18 3h1l1 5v3l1 6 1 3 1 5v3l1 6 1 3v6l1 3v6l1 3v6l1 3v8l1 6v3l1 6v12a644 644 0 011 23z" fill="#fff"/><path d="M296 143a124 124 0 01-15 1h-7l-1-3a137 137 0 0023-1v3zM298 152a124 124 0 01-18 1h-4l-1-3a132 132 0 0022-1l1 3zM299 160a125 125 0 01-19 2h-2v-3a128 128 0 0021-2v3zM301 169a126 126 0 01-21 2v-3a123 123 0 0020-2l1 3zM302 178a123 123 0 01-20 2l-1-3a121 121 0 0020-2l1 3zM303 187a120 120 0 01-19 2l-1-3a118 118 0 0019-2l1 3zM304 196a119 119 0 01-19 1v-2a116 116 0 0018-2l1 3zM304 204a118 118 0 01-18 2v-2a115 115 0 0018-3v3zM305 213a118 118 0 01-18 2v-3a114 114 0 0018-2v3zM306 222a118 118 0 01-18 2v-3a114 114 0 0018-2v3zM306 231a120 120 0 01-17 2v-3a116 116 0 0017-2v3zM307 240a122 122 0 01-18 2v-3a117 117 0 0018-2v3zM307 249a127 127 0 01-19 2v-3a121 121 0 0019-2v3z" fill="#e2e2e2"/><path d="M313 83s5 3 3 12-5 9-5 9-4-18 2-21z" fill="#32324c"/><path d="M292 122v10l-1 5c-6 4-15-2-15-2l-2-15c3-2 10 0 15 1l3 1z" fill="#ffaf82"/><path d="M292 122v10c-8-1-13-11-13-11h10l3 1z" fill="#f88968"/><path d="M312 88s11-6 8-15-17-5-29-4c-19 0-25 10-25 21s1 25 6 30 8-2 10-9 18-27 30-23z" fill="#32324c"/><path d="M313 97v1a163 163 0 01-2 21 12 12 0 01-15 10c-8-2-18-5-23-8l-2-3a68 68 0 01-1-9l1-23c9-13 37-8 41 1l1 10z" fill="#ffaf82"/><path d="M297 102l-1 3s-2-1-2-3l2-2 1 2zM311 102l-1 3s-2-1-2-3l2-2 1 2zM270 100s4-3 8 2h3l1-9c1-3 7-3 8-7 0 0 13 5 22 2s-18-19-32-12-12 14-10 24z" fill="#32324c"/><path d="M290 99a7 7 0 014-3 6 6 0 014 0 1 1 0 011 1 1 1 0 01-1 1c-2-1-5-2-8 1zM313 97v1a7 7 0 00-6 0 1 1 0 010-2 6 6 0 014 0 5 5 0 012 1zM273 121l-2-3a68 68 0 01-1-9l7 5s0 6-4 7z" fill="#32324c"/><path d="M278 102s-4-5-8-2-1 15 7 14z" fill="#ffaf82"/><path d="M278 112a1 1 0 01-1-1c-1-6-4-7-4-7a1 1 0 010-1s4 1 5 8a1 1 0 010 1z" fill="#f88968"/><path d="M273 108a1 1 0 01-1-1 4 4 0 014-1 1 1 0 110 1 3 3 0 00-3 1zM304 117a13 13 0 01-10-4 1 1 0 111-1c5 5 12 3 12 3a1 1 0 010 2 15 15 0 01-3 0zM301 121a7 7 0 01-6-3 1 1 0 011-1 6 6 0 006 2 1 1 0 110 1 9 9 0 01-1 1zM304 110a1 1 0 01-1-1l2-1-2-1-1-5a1 1 0 012 0v4l3 1a1 1 0 010 1l-3 2z" fill="#f88968"/><path d="M263 252l4 3s0 12-6 17l-6-14z" fill="#ffaf82"/><path d="M251 141s-12 37-13 57c0 0 0 36 17 60l8-6s-10-36-10-50c0 0 10-26 12-36 0 0-7-25-14-25z" fill="#009762"/></g></svg>