<svg xmlns="http://www.w3.org/2000/svg" width="347.4" height="740.1"><g transform="translate(-158 -260)"><ellipse cx="130.1" cy="19.7" rx="130.1" ry="19.7" transform="translate(195 961)" fill="#32324c" opacity=".1"/><g fill="#32324c"><path d="M505 749c-11 162-216 228-317 101-21-26-26-89-20-122 21-134 90-147 39-232s-56-237 85-236 50 227 147 290c44 28 71 115 66 199z" opacity=".1"/><path d="M451 513a22 22 0 01-23-7c-10-11-24-33-20-59 6-38 54-8 57 34 2 21-6 29-14 32zM401 415a11 11 0 01-8-10c0-8 1-22 11-31 15-14 25 14 13 32-6 10-12 10-16 9zM169 597a11 11 0 01-10-8c-1-8-3-22 6-33 11-16 26 10 18 30-4 10-10 12-14 11z" opacity=".1"/></g><path d="M380 795l-13 163h-24c-5-64-14-120-4-163-10-50-18-162-18-162 18-8 47-16 47-16 10 55 12 178 12 178z" fill="#050705"/><path d="M422 996h-78a7 7 0 01-7-7l3-41a46 46 0 018-3 8 8 0 006-5v-1c2-8 13-10 15-2a56 56 0 012 8 44 44 0 010 5l3 4 2 2a377 377 0 009 11c4 4 8 7 13 8 8 1 22 2 28 14a4 4 0 011 1 5 5 0 01-5 6z" fill="#de9d01"/><path d="M422 996h-78a7 7 0 01-7-6h90a5 5 0 01-5 6z" fill="#bf8005"/><path d="M376 956c-1 1-3 3-7 4l-2 1v-2l2-1c4-1 5-3 5-4l2 2z" fill="#fff"/><circle cx="2.4" cy="2.4" r="2.4" fill="#fff" transform="translate(364 958)"/><path d="M380 962a15 15 0 01-5 3l-3 1v-2l2-1a12 12 0 005-3l1 2z" fill="#fff"/><path d="M375 965a2 2 0 11-3-3 2 2 0 013 3z" fill="#fff"/><g><path d="M385 967a16 16 0 01-5 3l-3 1-1-2 3-1a13 13 0 004-3l2 2z" fill="#fff"/><path d="M380 970a2 2 0 11-3-2 2 2 0 013 2z" fill="#fff"/></g><g><path d="M371 945a55 55 0 00-7 0v-4a18 18 0 016-1l1 5z" fill="#fff"/></g><g><path d="M308 633s0 65-9 162c-6 52-13 119-21 163h-23l-4-163s-5-101 7-170z" fill="#2c2c2c"/><path d="M299 991c0 14-43 9-50 5-3-2-4-5-4-9l3-19 4-16s0-11 14-15 19 23 22 28c2 4 10 11 11 23a26 26 0 010 3z" fill="#de9d01"/><path d="M258 961l-1-2c1-1 13-9 24-4l-1 2c-10-4-21 3-22 4zM260 972l-1-1c0-1 12-9 23-4l-1 2c-9-4-21 3-21 3zM259 966l-1-1c0-1 13-9 24-4l-1 2c-10-4-22 3-22 3z" fill="#fff"/><path d="M260 960a2 2 0 11-2-2 2 2 0 012 2zM260 966a2 2 0 11-2-3 2 2 0 012 3zM261 971a2 2 0 11-2-2 2 2 0 012 2zM284 968a2 2 0 11-2-2 2 2 0 012 2zM284 962a2 2 0 11-3-3 2 2 0 013 3zM283 956a2 2 0 11-2-3 2 2 0 012 3z" fill="#fff"/><path d="M299 991c0 14-43 9-50 5-3-2-4-5-4-9 4 3 12 6 24 6 15 1 25-2 30-5a26 26 0 010 3z" fill="#bf8005"/><path d="M272 941a23 23 0 00-12 3l1 4s7-2 13-2a10 10 0 00-2-5z" fill="#fff"/><g><path d="M261 608s-8 29-8 54c0 0 40 17 90-2a41 41 0 0023-51v-1s-64-3-105 0z" fill="#2c2c2c"/></g></g><g><path d="M496 420v1a53 53 0 01-2 3c-4 6-9 12-16 14 0 0-9-8-10-11a66 66 0 01-1-13s0-7 2-9a6 6 0 015-2s3-19 8-23 1 9 0 20c0-1 3-4 6-3 2 1 0 6 0 6 1 0 5-4 7-3 2 2-1 8-1 8s4-2 5 1c1 2 0 6-3 11z" fill="#ffaf82"/><path d="M496 420v1l-2 1a4 4 0 01-2 1c-4 0-2-6-2-6s-3 1-5-1-1-4-1-4-3 2-4 0c-2-3 1-8 1-8s-2 4 0 6 5-1 6-1c0 0-3 5 0 6s4-1 4-2c0 1-2 6 1 8 1 1 3 0 4-1z" fill="#f88968"/><path d="M477 407a13 13 0 011 8c0 4-7 2-10-3 0 0 1 4 6 6 4 2 10-1 3-11z" fill="#f88968"/><path d="M479 415s5 9-2 14a7 7 0 005-6c2-6-3-9-3-9z" fill="#f88968"/><g><path d="M467 425l-28 26c-15 13-40 39-40 39-14-7-41-55-49-69-6 22-7 44 0 65 10 14 36 46 51 43 18-4 81-93 81-93a22 22 0 01-15-11z" fill="#00784e"/></g></g><g><path d="M371 616a179 179 0 01-22 8l-6 2a138 138 0 01-34 5c-19 0-38-4-56-15l12-72-20-117 30-10 1-1 3-1h2l2-1 6-2 31 4h2l3 1h2l23 3z" fill="#009762"/><path d="M343 626a138 138 0 01-34 5l1-10 1-5v-11-5-11-5l-1-10v-6l-1-10-1-5-1-11-1-5-1-11-1-5-2-10-1-5-2-11-1-5-2-11-1-5-2-10-1-6-3-10a633 633 0 00-4-16l-1-5-3-12 2-1 6-2 31 4h2l2 9 1 5 2 11v5l2 10 1 5 1 11 1 5 1 10 1 5 1 10 1 6 1 10v5l1 10 1 6 1 10v5l1 11v5l1 10v5a889 889 0 011 41z" fill="#fff"/><path d="M325 430a217 217 0 01-28 2h-12l-1-5a241 241 0 0040-2l1 5zM327 446a218 218 0 01-30 2h-8l-1-6a231 231 0 0039-1v5zM330 461a219 219 0 01-34 3h-3l-1-6a224 224 0 0037-2l1 5zM332 477a220 220 0 01-36 2l-1-5a215 215 0 0036-2l1 5zM334 492a215 215 0 01-35 3l-1-5a211 211 0 0035-3l1 5zM336 508a211 211 0 01-34 3l-1-5a206 206 0 0034-4l1 6zM337 523a208 208 0 01-32 3l-1-5a204 204 0 0033-3v5zM339 539a207 207 0 01-32 3l-1-5a202 202 0 0032-4l1 6zM340 554a206 206 0 01-31 4l-1-5a200 200 0 0032-4v5zM341 570a207 207 0 01-31 4v-6a200 200 0 0031-3v5zM342 585a209 209 0 01-31 4v-5a203 203 0 0031-4v5zM343 601a214 214 0 01-32 4v-5a205 205 0 0032-4v5zM343 617a222 222 0 01-33 4l1-5a212 212 0 0032-4v5z" fill="#e2e2e2"/></g><g><path d="M362 309s9 6 6 23-10 19-10 19-10-38 4-42z" fill="#32324c"/><path d="M319 388l-1 21-1 10c-12 9-32-4-32-4l-2-31c5-4 20-1 29 1l7 3z" fill="#ffaf82"/><path d="M319 388l-1 21c-15-4-27-23-27-23l21-1 7 3z" fill="#f88968"/><path d="M360 318s23-11 16-30-34-10-59-9c-39 1-52 22-51 44s1 50 11 61 16-5 21-18 36-55 62-48z" fill="#32324c"/><path d="M362 336v5l-5 40a25 25 0 01-30 20c-17-3-37-8-47-14-3-2-4-4-5-6a139 139 0 01-1-19c-1-21 1-49 1-49 20-25 76-15 85 4 2 4 2 11 2 19z" fill="#ffaf82"/><path d="M341 375a6 6 0 01-1 3 6 6 0 01-11-1 6 6 0 016-8 6 6 0 016 6z" fill="#920e08"/><path d="M340 378a6 6 0 01-11-1 11 11 0 017-1 12 12 0 014 2z" fill="#f85c66"/><path d="M329 348c0 3-1 5-3 5s-3-2-3-5 1-5 3-5 3 2 3 5zM357 348c0 3-1 5-2 5s-3-2-3-5 1-5 3-5 2 2 2 5zM274 342s9-6 16 5h6s0-12 3-19 14-6 15-14c0 0 27 11 46 4s-38-39-66-24-25 28-20 48z" fill="#32324c"/><path d="M315 343s1-6 5-9a13 13 0 0110-3 2 2 0 011 2 2 2 0 01-2 2c-3 0-9 0-14 8zM362 337v4a14 14 0 00-10-6 2 2 0 01-1 0 2 2 0 011-3 13 13 0 019 4 10 10 0 011 1zM280 387c-3-2-4-4-5-6a139 139 0 01-1-19l15 10s0 11-9 15z" fill="#32324c"/><path d="M290 347s-9-11-16-5c-9 7-2 31 15 30z" fill="#ffaf82"/><path d="M289 367a1 1 0 01-1-1c-2-12-9-14-9-14a1 1 0 010-3c1 0 10 2 11 17a1 1 0 01-1 1z" fill="#f88968"/><path d="M280 360a1 1 0 01-2-3 8 8 0 018-2 1 1 0 010 3 5 5 0 00-5 1 1 1 0 01-1 1z" fill="#f88968"/><g><path d="M335 387a15 15 0 01-12-5 1 1 0 013-1s4 5 12 3a1 1 0 110 3 19 19 0 01-3 0z" fill="#f88968"/></g><g><path d="M342 364a1 1 0 01-1-2l4-3-3-1a1 1 0 01-1-1l-2-10a1 1 0 013 0l2 8 5 2a1 1 0 011 2l-7 5a1 1 0 01-1 0z" fill="#f88968"/></g></g><g><path d="M268 650s6 2 8 5c0 0 0 20-11 29l-10-24z" fill="#ffaf82"/><path d="M245 428s-24 74-26 113c0 0 0 71 35 121l15-12s-19-72-19-100c0 0 20-51 23-72 0 0-14-50-28-50z" fill="#009762"/></g></g></svg>