<svg class="logo" xmlns="http://www.w3.org/2000/svg" viewBox="0 0 500 399.5"><path d="M104 1C61 1 31 20 31 66c0 14 2 28 4 42s4 28 4 42c-1 17-6 37-41 37v25c36 0 41 22 41 38l-3 31v24h31l2-12c2-13 4-25 4-39 0-32-14-48-37-54v-1c23-6 37-22 37-54 0-14-2-26-4-38s-4-24-4-36c0-27 11-42 40-43h291V0L104 1z"/><path d="M460 150l3-40c3-14 5-28 5-41 0-51-32-69-73-69h-10v28h8c28 0 40 15 40 43l-3 36c-2 13-4 25-4 39 0 32 14 48 36 54v1c-22 6-37 22-36 54 0 14 2 26 4 38l3 36c0 27-10 42-40 43H124v2l-2 5-7 20h279c43 0 74-19 74-65 0-14-2-28-4-42s-4-28-4-42c0-17 5-37 40-37v-25c-35 0-40-22-40-38z"/><path d="M150 213l-79 92h37l71-83h40v83h29V91h-80l-14 2c-8 1-16 4-23 9-8 5-14 11-19 19-4 7-7 17-7 29a64 64 0 0045 63zm-11-78c2-5 6-9 11-12 4-3 10-5 15-6l20-2h34v82h-29c-8 1-16 0-24-2-12-3-22-11-27-23a56 56 0 010-37z"/><path d="M298 305c66-3 99-39 99-108 0-68-33-103-100-106h-77v214h78zm-50-189h39c31 0 52 7 64 21s17 34 17 60-6 47-17 61c-12 15-33 22-64 22h-39V116zM29 372v27h97v-28H29zM108 306v-28H36v28h72z"/></svg>